# xmcd CD database file
#
# Track frame offsets:
#	150
#	22336
#	96916
#	264117
#
# Disc length: 3770 seconds
#
# Revision: 0
# Processed by: cddbd v1.5.2PL0 Copyright (c) Steve Scherf et al.
# Submitted via: CDex 1.51
#
DISCID=2d0eb804
DTITLE=M. Schulze Bläser Quintett - Choral-Konzert
DYEAR=1998
DGENRE=Jazz
TTITLE0=Bounce Nr. 2
TTITLE1=B-A-C-H
TTITLE2=Choral-Konzert
TTITLE3=Dresden Suite (4. Satz)
EXTD=YEAR: 1998
EXTT0=
EXTT1=
EXTT2=
EXTT3=
PLAYORDER=
